<?xml version="1.0" encoding="UTF-8"?>
<svg viewBox="0 0 100 100" version="1.1" xmlns="http://www.w3.org/2000/svg">
    <!-- Definitions for gradients and filters -->
    <defs>
        <!-- Main gradients -->
        <linearGradient id="mainGrad" x1="0%" y1="0%" x2="100%" y2="100%">
            <stop offset="0%" style="stop-color:#F8D210"/>   <!-- yellow primary -->
            <stop offset="100%" style="stop-color:#FFE66D"/> <!-- yellow secondary -->
        </linearGradient>
        <linearGradient id="accentGrad" x1="0%" y1="0%" x2="100%" y2="100%">
            <stop offset="0%" style="stop-color:#017374"/>   <!-- turquoise primary -->
            <stop offset="100%" style="stop-color:#5AB9A8"/> <!-- turquoise secondary -->
        </linearGradient>
        
        <!-- Glow and shine effects -->
        <filter id="glow">
            <feGaussianBlur stdDeviation="1" result="coloredBlur"/>
            <feMerge>
                <feMergeNode in="coloredBlur"/>
                <feMergeNode in="SourceGraphic"/>
            </feMerge>
        </filter>
        
        <!-- Shine gradient -->
        <linearGradient id="shineGrad" x1="0%" y1="0%" x2="100%" y2="100%">
            <stop offset="0%" style="stop-color:white;stop-opacity:0.3"/>
            <stop offset="100%" style="stop-color:white;stop-opacity:0"/>
        </linearGradient>
    </defs>

    <!-- Background Circle -->
    <circle cx="50" cy="50" r="48" fill="#017374" opacity="0.1"/>
    
    <!-- Main Star Shape (representing motivation and achievement) -->
    <g filter="url(#glow)">
        <!-- Central Star -->
        <path d="M50 15 L55 40 L80 45 L55 50 L50 75 L45 50 L20 45 L45 40 Z" 
              fill="url(#mainGrad)" 
              opacity="0.9"/>
        
        <!-- Accent Orbits -->
        <path d="M50,20 A30,30 0 1,1 49.9,20" 
              fill="none" 
              stroke="url(#accentGrad)" 
              stroke-width="2" 
              opacity="0.8"
              transform="rotate(45, 50, 50)"/>
              
        <path d="M50,25 A25,25 0 1,0 50.1,25" 
              fill="none" 
              stroke="url(#accentGrad)" 
              stroke-width="2" 
              opacity="0.8"
              transform="rotate(-45, 50, 50)"/>
    </g>
    
    <!-- Shine Effect -->
    <path d="M30,30 L70,70" 
          stroke="url(#shineGrad)" 
          stroke-width="4" 
          stroke-linecap="round"
          opacity="0.6"/>
    
    <!-- Energy Points -->
    <circle cx="50" cy="50" r="3" fill="#F8D210"/>
    <circle cx="55" cy="40" r="2" fill="#5AB9A8"/>
    <circle cx="45" cy="40" r="2" fill="#5AB9A8"/>
</svg>